<?xml version="1.0" encoding="utf-8"?>
<!-- Generator: Adobe Illustrator 19.0.0, SVG Export Plug-In . SVG Version: 6.00 Build 0)  -->
<svg version="1.1" id="Camada_1" xmlns="http://www.w3.org/2000/svg" xmlns:xlink="http://www.w3.org/1999/xlink" x="0px" y="0px"
	 viewBox="0 0 18 20" style="enable-background:new 0 0 18 20;" xml:space="preserve">
<style type="text/css">
	.st0{fill:#66BCD3;}
</style>
<path id="XMLID_2_" class="st0" d="M13.1,17.7V7c0.9-0.5,1.4-1.5,1.4-2.6c0-1.6-1.2-2.8-2.7-2.9C11.1,0.6,9.9,0,8.7,0
	C7.9,0,7.2,0.3,6.6,0.8C5.5,0.5,4.3,0.7,3.5,1.5C1.7,1.2,0,2.5,0,4.4C0,5.5,0.7,6.5,1.6,7v10.7c0,0.6-0.3,1-0.8,1V20h13.1v-1.3
	C13.4,18.7,13.1,18.2,13.1,17.7z M5.7,17.5H4.1V6.9c0.5,0.4,1.2,0.3,1.6,0.2V17.5z M11.6,6.1c-0.5,0-1-0.2-1.3-0.6L10,5.7
	c-1.2,1-0.1,2.8,0,3.6c0.1,0.8-0.4,1.4-1.2,1.4c-0.8,0-1.2-0.7-1.1-1.4c0.1-0.8,1.3-2.4-0.1-3.7L7,5.1C6.7,5.6,6.2,5.8,5.6,5.8
	c-0.5,0-0.9-0.2-1.3-0.5C4,5.7,3.5,6,3,6C0.8,6,0.7,2.7,3,2.7c0.3,0,0.6,0.1,0.9,0.3C4.2,2.4,4.8,2,5.6,2c0.5,0,0.9,0.2,1.3,0.5
	c0.4-0.7,1.1-1.1,2-1.1c1,0,1.9,0.7,2.2,1.6c0.2-0.1,0.4-0.1,0.6-0.1c0.9,0,1.6,0.7,1.6,1.6S12.5,6.1,11.6,6.1z M18,10.4
	c0,2.1-1.5,4.8-4.1,5.8v-1.8c2.6-1.5,3.2-5.2,1.3-5.2h-1.3V7.5h1.6C17.2,7.5,18,8.8,18,10.4z"/>
</svg>
